<svg width="13" height="11.615" overflow="visible" viewBox="0 0 12.9998 11.6149" fill="none" xmlns="http://www.w3.org/2000/svg">
<g id="Frame" clip-path="url(#clip0_0_4)">
<path id="Vector" d="M0.982757 9.95459L1.55606 10.9448C1.67519 11.1533 1.84643 11.3171 2.04746 11.4362L4.09497 7.8922H-4.57764e-05C-4.57764e-05 8.12301 0.059518 8.35382 0.178646 8.56229L0.982757 9.95459Z" fill="var(--fill-0, #0066DA)" style="fill:#0066DA;fill:color(display-p3 0.0000 0.4000 0.8549);fill-opacity:1;"/>
<path id="Vector_2" d="M6.49986 3.72273L4.45235 0.178687C4.25132 0.297814 4.08008 0.461615 3.96095 0.670088L0.178646 7.22211C0.0617089 7.42608 0.000109918 7.65708 -4.57764e-05 7.8922H4.09497L6.49986 3.72273Z" fill="var(--fill-0, #00AC47)" style="fill:#00AC47;fill:color(display-p3 0.0000 0.6745 0.2784);fill-opacity:1;"/>
<path id="Vector_3" d="M10.9523 11.4362C11.1533 11.3171 11.3245 11.1533 11.4437 10.9448L11.6819 10.5353L12.8211 8.56229C12.9402 8.35382 12.9998 8.12301 12.9998 7.8922H8.90446L9.77588 9.60466L10.9523 11.4362Z" fill="var(--fill-0, #EA4335)" style="fill:#EA4335;fill:color(display-p3 0.9176 0.2627 0.2078);fill-opacity:1;"/>
<path id="Vector_4" d="M6.49984 3.72273L8.54735 0.178685C8.34632 0.0595571 8.11551 -6.7185e-06 7.87725 -6.7185e-06H5.12243C4.88417 -6.7185e-06 4.65336 0.0670026 4.45233 0.178685L6.49984 3.72273Z" fill="var(--fill-0, #00832D)" style="fill:#00832D;fill:color(display-p3 0.0000 0.5137 0.1765);fill-opacity:1;"/>
<path id="Vector_5" d="M8.90474 7.8922H4.09497L2.04746 11.4362C2.24849 11.5554 2.4793 11.6149 2.71755 11.6149H10.2822C10.5204 11.6149 10.7512 11.5479 10.9523 11.4362L8.90474 7.8922Z" fill="var(--fill-0, #2684FC)" style="fill:#2684FC;fill:color(display-p3 0.1490 0.5176 0.9882);fill-opacity:1;"/>
<path id="Vector_6" d="M10.9299 3.9461L9.03875 0.670088C8.91962 0.461615 8.74837 0.297814 8.54735 0.178687L6.49984 3.72273L8.90473 7.8922H12.9923C12.9923 7.66139 12.9327 7.43058 12.8136 7.22211L10.9299 3.9461Z" fill="var(--fill-0, #FFBA00)" style="fill:#FFBA00;fill:color(display-p3 1.0000 0.7294 0.0000);fill-opacity:1;"/>
</g>
<defs>
<clipPath id="clip0_0_4">
<rect width="12.9998" height="11.6149" fill="white" style="fill:white;fill-opacity:1;"/>
</clipPath>
</defs>
</svg>
