<svg width="13" height="7.995" overflow="visible" viewBox="0 0 13 7.995" fill="none" xmlns="http://www.w3.org/2000/svg">
<g id="Frame" clip-path="url(#clip0_0_4)">
<path id="Vector" d="M3.59268 1.22304C1.60524 1.22304 0.119731 2.72792 0.00780127 4.40427C0.0770913 4.76554 0.304591 5.47872 0.660921 5.44219C1.1063 5.39643 2.2282 5.44219 3.18513 3.83981C3.88414 2.66929 5.32194 1.22304 3.59268 1.22304Z" fill="url(#paint0_radial_0_4)"/>
<path id="Vector_2" d="M3.13287 1.84847C2.4648 2.82685 1.56559 4.22877 1.26204 4.66986C0.901289 5.19428 -0.0542106 4.97146 0.0249594 4.2198C0.0171339 4.28109 0.0111512 4.34261 0.00701937 4.40427C-0.123631 6.35986 1.55259 7.98382 3.63844 7.98382C5.93736 7.98382 11.42 5.33429 10.8651 2.67956C10.2804 1.1193 8.63668 -2.44141e-06 6.77391 -2.44141e-06C4.91114 -2.44141e-06 3.71722 0.992678 3.133 1.84847H3.13287Z" fill="url(#paint1_radial_0_4)"/>
<path id="Vector_3" d="M3.13287 1.84847C2.4648 2.82685 1.56559 4.22877 1.26204 4.66986C0.901289 5.19428 -0.0542106 4.97146 0.0249594 4.2198C0.0171339 4.28109 0.0111512 4.34261 0.00701937 4.40427C-0.123631 6.35986 1.55259 7.98382 3.63844 7.98382C5.93736 7.98382 11.42 5.33429 10.8651 2.67956C10.2804 1.1193 8.63668 -2.44141e-06 6.77391 -2.44141e-06C4.91114 -2.44141e-06 3.71722 0.992678 3.133 1.84847H3.13287Z" fill="url(#paint2_radial_0_4)" fill-opacity="0.4"/>
<path id="Vector_4" d="M3.13287 1.84847C2.4648 2.82685 1.56559 4.22877 1.26204 4.66986C0.901289 5.19428 -0.0542106 4.97146 0.0249594 4.2198C0.0171339 4.28109 0.0111512 4.34261 0.00701937 4.40427C-0.123631 6.35986 1.55259 7.98382 3.63844 7.98382C5.93736 7.98382 11.42 5.33429 10.8651 2.67956C10.2804 1.1193 8.63668 -2.44141e-06 6.77391 -2.44141e-06C4.91114 -2.44141e-06 3.71722 0.992678 3.133 1.84847H3.13287Z" fill="url(#paint3_radial_0_4)"/>
<path id="Vector_5" d="M3.13287 1.84847C2.4648 2.82685 1.56559 4.22877 1.26204 4.66986C0.901289 5.19428 -0.0542106 4.97146 0.0249594 4.2198C0.0171339 4.28109 0.0111512 4.34261 0.00701937 4.40427C-0.123631 6.35986 1.55259 7.98382 3.63844 7.98382C5.93736 7.98382 11.42 5.33429 10.8651 2.67956C10.2804 1.1193 8.63668 -2.44141e-06 6.77391 -2.44141e-06C4.91114 -2.44141e-06 3.71722 0.992678 3.133 1.84847H3.13287Z" fill="url(#paint4_radial_0_4)" fill-opacity="0.6"/>
<path id="Vector_6" d="M3.13287 1.84847C2.4648 2.82685 1.56559 4.22877 1.26204 4.66986C0.901289 5.19428 -0.0542106 4.97146 0.0249594 4.2198C0.0171339 4.28109 0.0111512 4.34261 0.00701937 4.40427C-0.123631 6.35986 1.55259 7.98382 3.63844 7.98382C5.93736 7.98382 11.42 5.33429 10.8651 2.67956C10.2804 1.1193 8.63668 -2.44141e-06 6.77391 -2.44141e-06C4.91114 -2.44141e-06 3.71722 0.992678 3.133 1.84847H3.13287Z" fill="url(#paint5_radial_0_4)" fill-opacity="0.9"/>
<path id="Vector_7" d="M3.60542 7.98499C3.60542 7.98499 9.09454 7.995 10.0256 7.995C11.7152 7.995 13 6.71892 13 5.23003C13 3.74114 11.6896 2.47273 10.0256 2.47273C8.3616 2.47273 7.4035 3.62414 6.68382 4.88098C5.84051 6.35375 4.76476 7.96731 3.60542 7.98499Z" fill="url(#paint6_linear_0_4)"/>
<path id="Vector_8" d="M3.60542 7.98499C3.60542 7.98499 9.09454 7.995 10.0256 7.995C11.7152 7.995 13 6.71892 13 5.23003C13 3.74114 11.6896 2.47273 10.0256 2.47273C8.3616 2.47273 7.4035 3.62414 6.68382 4.88098C5.84051 6.35375 4.76476 7.96731 3.60542 7.98499Z" fill="url(#paint7_radial_0_4)" fill-opacity="0.4"/>
<path id="Vector_9" d="M3.60542 7.98499C3.60542 7.98499 9.09454 7.995 10.0256 7.995C11.7152 7.995 13 6.71892 13 5.23003C13 3.74114 11.6896 2.47273 10.0256 2.47273C8.3616 2.47273 7.4035 3.62414 6.68382 4.88098C5.84051 6.35375 4.76476 7.96731 3.60542 7.98499Z" fill="url(#paint8_radial_0_4)" fill-opacity="0.9"/>
</g>
<defs>
<radialGradient id="paint0_radial_0_4" cx="0" cy="0" r="1" gradientTransform="matrix(2.6243 2.90845 4.8794 -4.39809 0.222266 1.70202)" gradientUnits="userSpaceOnUse">
<stop stop-color="#4894FE" style="stop-color:#4894FE;stop-color:color(display-p3 0.2824 0.5804 0.9961);stop-opacity:1;"/>
<stop offset="0.7" stop-color="#0934B3" style="stop-color:#0934B3;stop-color:color(display-p3 0.0353 0.2039 0.7020);stop-opacity:1;"/>
</radialGradient>
<radialGradient id="paint1_radial_0_4" cx="0" cy="0" r="1" gradientTransform="matrix(-11.5348 12.3091 9.19941 8.61264 11.273 -2.76319)" gradientUnits="userSpaceOnUse">
<stop offset="0.17" stop-color="#23C0FE" style="stop-color:#23C0FE;stop-color:color(display-p3 0.1373 0.7529 0.9961);stop-opacity:1;"/>
<stop offset="0.53" stop-color="#1C91FF" style="stop-color:#1C91FF;stop-color:color(display-p3 0.1098 0.5686 1.0000);stop-opacity:1;"/>
</radialGradient>
<radialGradient id="paint2_radial_0_4" cx="0" cy="0" r="1" gradientTransform="matrix(-2.74242 -2.12954 -4.79809 6.17305 2.94537 1.87146)" gradientUnits="userSpaceOnUse">
<stop stop-color="white" style="stop-color:white;stop-opacity:1;"/>
<stop offset="0.66" stop-color="#ADC0FF" stop-opacity="0" style="stop-color:none;stop-opacity:0;"/>
</radialGradient>
<radialGradient id="paint3_radial_0_4" cx="0" cy="0" r="1" gradientTransform="matrix(-3.08056 -2.41113 -3.6068 4.60377 6.77668 5.78763)" gradientUnits="userSpaceOnUse">
<stop stop-color="#033ACC" style="stop-color:#033ACC;stop-color:color(display-p3 0.0118 0.2275 0.8000);stop-opacity:1;"/>
<stop offset="1" stop-color="#368EFF" stop-opacity="0" style="stop-color:none;stop-opacity:0;"/>
</radialGradient>
<radialGradient id="paint4_radial_0_4" cx="0" cy="0" r="1" gradientTransform="matrix(3.5205 7.51546 8.5453 -3.99971 2.73331 -0.279176)" gradientUnits="userSpaceOnUse">
<stop offset="0.59" stop-color="#3464E3" stop-opacity="0" style="stop-color:none;stop-opacity:0;"/>
<stop offset="1" stop-color="#033ACC" style="stop-color:#033ACC;stop-color:color(display-p3 0.0118 0.2275 0.8000);stop-opacity:1;"/>
</radialGradient>
<radialGradient id="paint5_radial_0_4" cx="0" cy="0" r="1" gradientTransform="matrix(-9.21015 8.51973 13.3139 14.3799 11.0779 -1.85825)" gradientUnits="userSpaceOnUse">
<stop stop-color="#4BFDE8" style="stop-color:#4BFDE8;stop-color:color(display-p3 0.2941 0.9922 0.9098);stop-opacity:1;"/>
<stop offset="0.54" stop-color="#4BFDE8" stop-opacity="0" style="stop-color:none;stop-opacity:0;"/>
</radialGradient>
<linearGradient id="paint6_linear_0_4" x1="8.30271" y1="7.98941" x2="8.30271" y2="2.53825" gradientUnits="userSpaceOnUse">
<stop stop-color="#0086FF" style="stop-color:#0086FF;stop-color:color(display-p3 0.0000 0.5255 1.0000);stop-opacity:1;"/>
<stop offset="0.49" stop-color="#00BBFF" style="stop-color:#00BBFF;stop-color:color(display-p3 0.0000 0.7333 1.0000);stop-opacity:1;"/>
</linearGradient>
<radialGradient id="paint7_radial_0_4" cx="0" cy="0" r="1" gradientTransform="matrix(5.48652 2.01213 3.59817 -9.80234 5.1228 3.12579)" gradientUnits="userSpaceOnUse">
<stop stop-color="white" style="stop-color:white;stop-opacity:1;"/>
<stop offset="0.79" stop-color="white" stop-opacity="0" style="stop-color:none;stop-opacity:0;"/>
</radialGradient>
<radialGradient id="paint8_radial_0_4" cx="0" cy="0" r="1" gradientTransform="matrix(-6.13003 4.88653 4.83593 6.05997 12.861 2.05579)" gradientUnits="userSpaceOnUse">
<stop stop-color="#4BFDE8" style="stop-color:#4BFDE8;stop-color:color(display-p3 0.2941 0.9922 0.9098);stop-opacity:1;"/>
<stop offset="0.58" stop-color="#4BFDE8" stop-opacity="0" style="stop-color:none;stop-opacity:0;"/>
</radialGradient>
<clipPath id="clip0_0_4">
<rect width="13" height="7.995" fill="white" style="fill:white;fill-opacity:1;"/>
</clipPath>
</defs>
</svg>
