<svg width="529" height="129" viewBox="0 0 529 129" fill="none" xmlns="http://www.w3.org/2000/svg">
<g clip-path="url(#clip0_536_2)">
<path d="M55.4115 0L27.0328 16.2197L90.7531 52.6263V103.509L119.495 88.8339V36.6289L55.4115 0Z" fill="black"/>
<path d="M3.86182 53.375L46.3888 77.6694V126.153L75.1302 111.478V61.6721L32.2288 37.1553L3.86182 53.375Z" fill="black"/>
<path d="M0 110.952L30.766 128.529V86.7159L0 69.127V110.952Z" fill="black"/>
<path d="M169.273 92.3796V39.098C169.273 33.0126 166.359 30.7306 158.495 30.7306V24.5166H196.048C217.101 24.5166 227.633 32.5094 227.633 45.9556C227.633 59.4018 216.855 66.5053 202.765 67.1372L220.401 88.705C228.394 98.3479 231.437 100.63 237.522 100.759V106.973H215.451L184.369 66.0021V92.2625C184.369 98.2191 187.669 100.759 194.644 100.759V106.973H158.495V100.759C166.23 100.759 169.273 98.3479 169.273 92.3913V92.3796ZM190.829 63.0764C203.9 63.0764 211.636 58.3837 211.636 47.477C211.636 37.5766 205.164 32.0062 192.865 32.0062H184.369V63.0881H190.84L190.829 63.0764Z" fill="black"/>
<path d="M247.282 88.8223V58.8872L238.4 54.8264V49.373H260.857V87.0435C260.857 94.1469 265.292 98.3364 272.021 98.3364C276.585 98.3364 280.271 96.6864 284.449 92.4969V58.8755L275.567 54.8147V49.3613H298.141V91.0926C298.141 95.914 300.294 97.1779 307.655 97.3066V102.503L289.774 108.459H285.21V97.0374C278.106 105.662 273.027 108.834 264.531 108.834C253.87 108.834 247.282 101.473 247.282 88.7872V88.8223Z" fill="black"/>
<path d="M320.095 91.8648V33.1415L310.709 30.7308V26.5413L330.627 19.6953H333.67V94.5447C333.67 99.8693 335.694 101.391 342.037 101.391V106.973H311.341V101.391C318.187 101.391 320.095 99.9981 320.095 91.8765V91.8648Z" fill="black"/>
<path d="M356.115 91.8644V61.8006L347.994 59.1325V54.943L365.875 48.214H369.679V95.6561C369.679 99.9743 371.703 101.367 378.046 101.367V106.949H347.35V101.367C354.079 101.367 356.104 99.9743 356.104 91.8527L356.115 91.8644ZM354.968 28.6942C354.968 24.2589 358.397 20.8301 363.09 20.8301C367.783 20.8301 371.34 24.2589 371.34 28.6942C371.34 33.3869 367.911 36.687 363.09 36.687C358.269 36.687 354.968 33.3869 354.968 28.6942Z" fill="black"/>
<path d="M401.907 100.747C405.711 100.747 408.753 99.8579 411.808 92.38L440.35 24.1309H450.122L476.885 89.8406C480.185 98.0909 483.228 100.747 487.546 100.747V106.961H453.047V100.876C460.654 100.747 464.083 97.7047 461.169 90.3438L456.476 78.4189H426.916L422.223 90.0863C419.438 97.1898 421.462 100.864 429.069 100.864V106.95H401.919V100.736L401.907 100.747ZM453.41 70.6835L441.743 41.1229L429.946 70.6835H453.41Z" fill="black"/>
<path d="M502.362 92.3796V39.098C502.362 33.1414 499.319 30.7306 491.584 30.7306V24.5166H528.376V30.7306C520.641 30.7306 517.341 33.2701 517.341 39.098V92.3796C517.341 98.2191 520.77 100.747 528.376 100.747V106.961H491.584V100.747C499.577 100.747 502.362 98.3362 502.362 92.3796Z" fill="black"/>
</g>
<defs>
<clipPath id="clip0_536_2">
<rect width="528.377" height="128.529" fill="white"/>
</clipPath>
</defs>
</svg>
