<svg width="370" height="90" viewBox="0 0 370 90" fill="none" xmlns="http://www.w3.org/2000/svg">
<g clip-path="url(#clip0_525_26)">
<path d="M10.778 72.6843V19.4026C10.778 13.3173 7.8641 11.0353 0 11.0353V4.82129H37.5534C58.6063 4.82129 69.1386 12.8141 69.1386 26.2603C69.1386 39.7065 58.3605 46.81 44.2707 47.4419L61.9064 69.0097C69.8992 78.6525 72.9419 80.9345 79.0272 81.0633V87.2773H56.9562L25.8743 46.3068V72.5672C25.8743 78.5238 29.1744 81.0633 36.1491 81.0633V87.2773H0V81.0633C7.73537 81.0633 10.778 78.6525 10.778 72.696V72.6843ZM32.3341 43.3811C45.4058 43.3811 53.1412 38.6884 53.1412 27.7817C53.1412 17.8813 46.6697 12.3109 34.3703 12.3109H25.8743V43.3928H32.3458L32.3341 43.3811Z" fill="#2E2E40"/>
<path d="M88.7871 69.127V39.1919L79.9049 35.1311V29.6777H102.362V67.3482C102.362 74.4516 106.797 78.6411 113.526 78.6411C118.09 78.6411 121.777 76.9911 125.954 72.8015V39.1802L117.072 35.1194V29.666H139.646V71.3972C139.646 76.2187 141.8 77.4826 149.16 77.6113V82.8072L131.279 88.7638H126.715V77.3421C119.612 85.9669 114.533 89.1383 106.037 89.1383C95.3756 89.1383 88.7871 81.7774 88.7871 69.0918V69.127Z" fill="#2E2E40"/>
<path d="M161.6 72.1695V13.4462L152.215 11.0355V6.84598L172.133 0H175.175V74.8494C175.175 80.174 177.2 81.6954 183.543 81.6954V87.2775H152.847V81.6954C159.693 81.6954 161.6 80.3028 161.6 72.1812V72.1695Z" fill="#2E2E40"/>
<path d="M197.621 72.1691V42.1053L189.499 39.4371V35.2476L207.381 28.5187H211.184V75.9607C211.184 80.279 213.208 81.6716 219.551 81.6716V87.2537H188.855V81.6716C195.584 81.6716 197.609 80.279 197.609 72.1574L197.621 72.1691ZM196.474 8.99887C196.474 4.56361 199.903 1.13477 204.595 1.13477C209.288 1.13477 212.846 4.56361 212.846 8.99887C212.846 13.6916 209.417 16.9917 204.595 16.9917C199.774 16.9917 196.474 13.6916 196.474 8.99887Z" fill="#2E2E40"/>
<path d="M243.413 81.052C247.216 81.052 250.259 80.1626 253.313 72.6847L281.855 4.43555H291.627L318.391 70.1453C321.691 78.3955 324.734 81.052 329.052 81.052V87.2661H294.553V81.1807C302.159 81.052 305.588 78.0094 302.674 70.6485L297.982 58.7236H268.421L263.728 70.391C260.943 77.4945 262.968 81.169 270.574 81.169V87.2544H243.424V81.0403L243.413 81.052ZM294.916 50.9882L283.248 21.4276L271.452 50.9882H294.916Z" fill="#2E2E40"/>
<path d="M343.867 72.6843V19.4026C343.867 13.4461 340.824 11.0353 333.089 11.0353V4.82129H369.882V11.0353C362.146 11.0353 358.846 13.5748 358.846 19.4026V72.6843C358.846 78.5238 362.275 81.0516 369.882 81.0516V87.2656H333.089V81.0516C341.082 81.0516 343.867 78.6409 343.867 72.6843Z" fill="#2E2E40"/>
</g>
<defs>
<clipPath id="clip0_525_26">
<rect width="369.882" height="89.1382" fill="white"/>
</clipPath>
</defs>
</svg>
