<svg width="33" height="33" viewBox="0 0 33 33" fill="none" xmlns="http://www.w3.org/2000/svg">
<path d="M8.25024 0.900391H16.925C17.8231 0.90047 18.6897 1.19941 19.3938 1.74121H18.0745V7.4248C18.0745 9.74439 19.9551 11.625 22.2747 11.625H28.4172V11.0576C28.6667 11.5903 28.8 12.1759 28.8 12.7754V28.0498C28.8 30.2865 26.9869 32.0995 24.7502 32.0996H8.25024C6.01349 32.0996 4.20044 30.2866 4.20044 28.0498V4.9502C4.20044 2.71344 6.01349 0.900391 8.25024 0.900391ZM19.8743 2.17188L27.5276 9.8252H22.2747C20.9492 9.82518 19.8743 8.75028 19.8743 7.4248V2.17188Z" fill="white" stroke="#CCC8C3" style="fill:white;fill-opacity:1;stroke:#CCC8C3;stroke:color(display-p3 0.8000 0.7843 0.7647);stroke-opacity:1;" stroke-width="1.8"/>
<path d="M1 22C1 19.7909 2.79086 18 5 18H29C31.2091 18 33 19.7909 33 22V29C33 31.2091 31.2091 33 29 33H5C2.79086 33 1 31.2091 1 29V22Z" fill="white" style="fill:white;fill-opacity:1;"/>
<path d="M1 22C1 19.7909 2.79086 18 5 18H29C31.2091 18 33 19.7909 33 22V29C33 31.2091 31.2091 33 29 33H5C2.79086 33 1 31.2091 1 29V22Z" fill="#56534B" style="fill:#56534B;fill:color(display-p3 0.3373 0.3255 0.2941);fill-opacity:1;"/>
<path d="M12.7337 24.2173H11.14C11.0945 23.956 11.0107 23.7244 10.8885 23.5227C10.7664 23.3182 10.6144 23.1449 10.4326 23.0028C10.2507 22.8608 10.0434 22.7543 9.81041 22.6832C9.58029 22.6094 9.33171 22.5724 9.06467 22.5724C8.59023 22.5724 8.16978 22.6918 7.8033 22.9304C7.43683 23.1662 7.14989 23.5128 6.94251 23.9702C6.73512 24.4247 6.63143 24.9801 6.63143 25.6364C6.63143 26.304 6.73512 26.8665 6.94251 27.3239C7.15273 27.7784 7.43967 28.1222 7.8033 28.3551C8.16978 28.5852 8.58881 28.7003 9.06041 28.7003C9.32177 28.7003 9.56609 28.6662 9.79336 28.598C10.0235 28.527 10.2294 28.4233 10.4113 28.2869C10.5959 28.1506 10.7507 27.983 10.8757 27.7841C11.0036 27.5852 11.0917 27.358 11.14 27.1023L12.7337 27.1108C12.674 27.5256 12.5448 27.9148 12.3459 28.2784C12.1499 28.642 11.8928 28.9631 11.5746 29.2415C11.2564 29.517 10.8843 29.733 10.4581 29.8892C10.032 30.0426 9.55898 30.1193 9.0391 30.1193C8.27205 30.1193 7.58739 29.9418 6.98512 29.5866C6.38285 29.2315 5.90842 28.7188 5.56183 28.0483C5.21523 27.3778 5.04194 26.5739 5.04194 25.6364C5.04194 24.696 5.21666 23.892 5.56609 23.2244C5.91552 22.554 6.39137 22.0412 6.99364 21.6861C7.59592 21.331 8.27773 21.1534 9.0391 21.1534C9.52489 21.1534 9.9766 21.2216 10.3942 21.358C10.8118 21.4943 11.184 21.6946 11.5107 21.9588C11.8374 22.2202 12.1059 22.5412 12.3161 22.9219C12.5292 23.2997 12.6684 23.7315 12.7337 24.2173ZM18.8244 23.6719C18.7846 23.2997 18.617 23.0099 18.3216 22.8026C18.0289 22.5952 17.6483 22.4915 17.1795 22.4915C16.85 22.4915 16.5673 22.5412 16.3315 22.6406C16.0957 22.7401 15.9153 22.875 15.7903 23.0455C15.6653 23.2159 15.6014 23.4105 15.5985 23.6293C15.5985 23.8111 15.6397 23.9687 15.7221 24.1023C15.8074 24.2358 15.9224 24.3494 16.0673 24.4432C16.2122 24.5341 16.3727 24.6108 16.5488 24.6733C16.725 24.7358 16.9025 24.7884 17.0815 24.831L17.8997 25.0355C18.2292 25.1122 18.546 25.2159 18.85 25.3466C19.1568 25.4773 19.4309 25.642 19.6724 25.8409C19.9167 26.0398 20.1099 26.2798 20.252 26.5611C20.394 26.8423 20.465 27.1719 20.465 27.5497C20.465 28.0611 20.3343 28.5114 20.073 28.9006C19.8116 29.2869 19.4338 29.5895 18.9395 29.8082C18.448 30.0241 17.8528 30.1321 17.1539 30.1321C16.475 30.1321 15.8855 30.027 15.3855 29.8168C14.8883 29.6065 14.4991 29.2997 14.2179 28.8963C13.9395 28.4929 13.7889 28.0014 13.7662 27.4219H15.3216C15.3443 27.7259 15.438 27.9787 15.6028 28.1804C15.7676 28.3821 15.9821 28.5327 16.2463 28.6321C16.5133 28.7315 16.8116 28.7812 17.1412 28.7812C17.4849 28.7812 17.786 28.7301 18.0446 28.6278C18.3059 28.5227 18.5105 28.3778 18.6582 28.1932C18.8059 28.0057 18.8812 27.7869 18.8841 27.5369C18.8812 27.3097 18.8145 27.1222 18.6838 26.9744C18.5531 26.8239 18.3699 26.6989 18.1341 26.5994C17.9011 26.4972 17.6284 26.4062 17.3159 26.3267L16.323 26.071C15.6042 25.8864 15.036 25.6065 14.6184 25.2315C14.2037 24.8537 13.9963 24.3523 13.9963 23.7273C13.9963 23.2131 14.1355 22.7628 14.4139 22.3764C14.6951 21.9901 15.0772 21.6903 15.5602 21.4773C16.0431 21.2614 16.59 21.1534 17.2008 21.1534C17.8201 21.1534 18.3627 21.2614 18.8287 21.4773C19.2974 21.6903 19.6653 21.9872 19.9324 22.3679C20.1994 22.7457 20.3372 23.1804 20.3457 23.6719H18.8244ZM22.9421 21.2727L25.2134 28.142H25.3029L27.5699 21.2727H29.3086L26.2319 30H24.2801L21.2077 21.2727H22.9421Z" fill="white" style="fill:white;fill-opacity:1;"/>
</svg>
