<svg width="26" height="26" viewBox="0 0 26 26" fill="none" xmlns="http://www.w3.org/2000/svg">
<path d="M6.50037 1H13.3344C14.1035 1 14.8413 1.30575 15.3851 1.84961L21.5502 8.01465C22.094 8.5585 22.3998 9.2963 22.3998 10.0654V22.0996C22.3998 23.7011 21.1018 24.9998 19.5004 25H6.50037C4.89874 25 3.59998 23.7012 3.59998 22.0996V3.90039C3.59998 2.29877 4.89874 1 6.50037 1Z" fill="white" stroke="#CCC8C3" style="fill:white;fill-opacity:1;stroke:#CCC8C3;stroke:color(display-p3 0.8000 0.7843 0.7647);stroke-opacity:1;" stroke-width="2"/>
<path d="M1.33325 19.4667C1.33325 17.7865 1.33325 16.9464 1.66023 16.3047C1.94785 15.7402 2.40679 15.2813 2.97128 14.9937C3.61302 14.6667 4.45309 14.6667 6.13325 14.6667H19.8666C21.5467 14.6667 22.3868 14.6667 23.0286 14.9937C23.593 15.2813 24.052 15.7402 24.3396 16.3047C24.6666 16.9464 24.6666 17.7865 24.6666 19.4667V21.2C24.6666 22.8802 24.6666 23.7202 24.3396 24.362C24.052 24.9265 23.593 25.3854 23.0286 25.673C22.3868 26 21.5467 26 19.8666 26H6.13326C4.4531 26 3.61302 26 2.97128 25.673C2.40679 25.3854 1.94785 24.9265 1.66023 24.362C1.33325 23.7202 1.33325 22.8802 1.33325 21.2V19.4667Z" fill="white" style="fill:white;fill-opacity:1;"/>
<path d="M1.33325 19.4667C1.33325 17.7865 1.33325 16.9464 1.66023 16.3047C1.94785 15.7402 2.40679 15.2813 2.97128 14.9937C3.61302 14.6667 4.45309 14.6667 6.13325 14.6667H19.8666C21.5467 14.6667 22.3868 14.6667 23.0286 14.9937C23.593 15.2813 24.052 15.7402 24.3396 16.3047C24.6666 16.9464 24.6666 17.7865 24.6666 19.4667V21.2C24.6666 22.8802 24.6666 23.7202 24.3396 24.362C24.052 24.9265 23.593 25.3854 23.0286 25.673C22.3868 26 21.5467 26 19.8666 26H6.13326C4.4531 26 3.61302 26 2.97128 25.673C2.40679 25.3854 1.94785 24.9265 1.66023 24.362C1.33325 23.7202 1.33325 22.8802 1.33325 21.2V19.4667Z" fill="#56534B" style="fill:#56534B;fill:color(display-p3 0.3373 0.3255 0.2941);fill-opacity:1;"/>
<path d="M9.8696 19.4963H8.67429C8.64019 19.3003 8.57734 19.1267 8.48572 18.9754C8.3941 18.822 8.28011 18.692 8.14375 18.5855C8.00738 18.4789 7.85184 18.399 7.67713 18.3458C7.50454 18.2904 7.31811 18.2627 7.11782 18.2627C6.762 18.2627 6.44666 18.3522 6.1718 18.5311C5.89694 18.708 5.68174 18.9679 5.5262 19.311C5.37066 19.6519 5.29289 20.0684 5.29289 20.5606C5.29289 21.0613 5.37066 21.4832 5.5262 21.8262C5.68387 22.1672 5.89907 22.425 6.1718 22.5997C6.44666 22.7723 6.76093 22.8586 7.11463 22.8586C7.31065 22.8586 7.49389 22.833 7.66434 22.7819C7.83693 22.7286 7.9914 22.6508 8.12777 22.5485C8.26626 22.4463 8.38238 22.3206 8.47613 22.1714C8.57201 22.0223 8.63806 21.8518 8.67429 21.66L9.8696 21.6664C9.82485 21.9775 9.72791 22.2694 9.57876 22.5422C9.43174 22.8149 9.23892 23.0556 9.00028 23.2645C8.76164 23.4711 8.48252 23.6331 8.16292 23.7502C7.84332 23.8653 7.48856 23.9228 7.09865 23.9228C6.52336 23.9228 6.00987 23.7897 5.55816 23.5233C5.10646 23.257 4.75063 22.8724 4.49069 22.3696C4.23075 21.8667 4.10078 21.2637 4.10078 20.5606C4.10078 19.8554 4.23181 19.2524 4.49389 18.7517C4.75596 18.2488 5.11285 17.8642 5.56456 17.5979C6.01626 17.3316 6.52762 17.1984 7.09865 17.1984C7.46299 17.1984 7.80177 17.2495 8.11498 17.3518C8.42819 17.4541 8.70731 17.6043 8.95234 17.8024C9.19737 17.9985 9.39872 18.2392 9.55639 18.5247C9.71619 18.8081 9.82059 19.132 9.8696 19.4963ZM14.3682 19.0872C14.3383 18.8081 14.2126 18.5908 13.991 18.4353C13.7716 18.2797 13.4861 18.202 13.1345 18.202C12.8874 18.202 12.6753 18.2392 12.4985 18.3138C12.3217 18.3884 12.1864 18.4896 12.0926 18.6174C11.9989 18.7453 11.9509 18.8912 11.9488 19.0553C11.9488 19.1917 11.9797 19.3099 12.0415 19.41C12.1054 19.5102 12.1917 19.5954 12.3003 19.6657C12.409 19.7339 12.5294 19.7914 12.6615 19.8383C12.7936 19.8852 12.9268 19.9246 13.061 19.9566L13.6746 20.11C13.9218 20.1675 14.1594 20.2453 14.3874 20.3433C14.6175 20.4413 14.8231 20.5649 15.0042 20.714C15.1874 20.8632 15.3323 21.0432 15.4388 21.2542C15.5454 21.4651 15.5986 21.7122 15.5986 21.9956C15.5986 22.3792 15.5006 22.7169 15.3046 23.0088C15.1086 23.2985 14.8252 23.5255 14.4545 23.6895C14.0859 23.8515 13.6395 23.9324 13.1153 23.9324C12.6061 23.9324 12.164 23.8536 11.789 23.6959C11.4161 23.5382 11.1242 23.3081 10.9133 23.0056C10.7045 22.703 10.5915 22.3344 10.5745 21.8997H11.741C11.7581 22.1277 11.8284 22.3174 11.952 22.4686C12.0756 22.6199 12.2364 22.7328 12.4346 22.8074C12.6349 22.882 12.8586 22.9193 13.1057 22.9193C13.3636 22.9193 13.5894 22.8809 13.7833 22.8042C13.9793 22.7254 14.1327 22.6167 14.2435 22.4782C14.3543 22.3376 14.4108 22.1735 14.4129 21.986C14.4108 21.8156 14.3607 21.675 14.2627 21.5642C14.1647 21.4512 14.0273 21.3575 13.8504 21.2829C13.6757 21.2062 13.4712 21.138 13.2368 21.0784L12.4921 20.8866C11.953 20.7481 11.5269 20.5382 11.2137 20.257C10.9026 19.9736 10.7471 19.5975 10.7471 19.1288C10.7471 18.7431 10.8515 18.4054 11.0603 18.1157C11.2712 17.8259 11.5578 17.6011 11.92 17.4413C12.2822 17.2794 12.6924 17.1984 13.1505 17.1984C13.615 17.1984 14.0219 17.2794 14.3714 17.4413C14.7229 17.6011 14.9989 17.8238 15.1991 18.1093C15.3994 18.3926 15.5028 18.7186 15.5092 19.0872H14.3682ZM17.387 17.2879L19.0905 22.4399H19.1576L20.8579 17.2879H22.1619L19.8543 23.8333H18.3905L16.0862 17.2879H17.387Z" fill="white" style="fill:white;fill-opacity:1;"/>
</svg>
