<svg width="34" height="33" viewBox="0 0 34 33" fill="none" xmlns="http://www.w3.org/2000/svg">
<path d="M8.25024 0.900391H16.925C17.8231 0.90047 18.6897 1.19941 19.3938 1.74121H18.0745V7.4248C18.0745 9.74439 19.9551 11.625 22.2747 11.625H28.4172V11.0576C28.6667 11.5903 28.8 12.1759 28.8 12.7754V28.0498C28.8 30.2865 26.9869 32.0995 24.7502 32.0996H8.25024C6.01349 32.0996 4.20044 30.2866 4.20044 28.0498V4.9502C4.20044 2.71344 6.01349 0.900391 8.25024 0.900391ZM19.8743 2.17188L27.5276 9.8252H22.2747C20.9492 9.82518 19.8743 8.75028 19.8743 7.4248V2.17188Z" fill="white" stroke="#CCC8C3" style="fill:white;fill-opacity:1;stroke:#CCC8C3;stroke:color(display-p3 0.8000 0.7843 0.7647);stroke-opacity:1;" stroke-width="1.8"/>
<path d="M0.5 22C0.5 19.7909 2.29086 18 4.5 18H29.5C31.7091 18 33.5 19.7909 33.5 22V29C33.5 31.2091 31.7091 33 29.5 33H4.5C2.29086 33 0.5 31.2091 0.5 29V22Z" fill="white" style="fill:white;fill-opacity:1;"/>
<path d="M0.5 22C0.5 19.7909 2.29086 18 4.5 18H29.5C31.7091 18 33.5 19.7909 33.5 22V29C33.5 31.2091 31.7091 33 29.5 33H4.5C2.29086 33 0.5 31.2091 0.5 29V22Z" fill="#007CE9" style="fill:#007CE9;fill:color(display-p3 0.0000 0.4863 0.9137);fill-opacity:1;"/>
<path d="M7.46506 30H4.50767V21.2727H7.52472C8.39119 21.2727 9.13551 21.4474 9.75767 21.7969C10.3827 22.1435 10.8628 22.642 11.198 23.2926C11.5332 23.9432 11.7009 24.7216 11.7009 25.6278C11.7009 26.5369 11.5318 27.3182 11.1938 27.9716C10.8585 28.625 10.3741 29.1264 9.74063 29.4759C9.10994 29.8253 8.35142 30 7.46506 30ZM6.08864 28.6321H7.38835C7.99631 28.6321 8.50341 28.5213 8.90966 28.2997C9.31591 28.0753 9.62131 27.7415 9.82585 27.2983C10.0304 26.8523 10.1327 26.2955 10.1327 25.6278C10.1327 24.9602 10.0304 24.4062 9.82585 23.9659C9.62131 23.5227 9.31875 23.1918 8.91818 22.973C8.52046 22.7514 8.02614 22.6406 7.43523 22.6406H6.08864V28.6321ZM20.9013 25.6364C20.9013 26.5767 20.7251 27.3821 20.3729 28.0526C20.0234 28.7202 19.5462 29.2315 18.9411 29.5866C18.3388 29.9418 17.6555 30.1193 16.8913 30.1193C16.1271 30.1193 15.4425 29.9418 14.8374 29.5866C14.2351 29.2287 13.7578 28.7159 13.4055 28.0483C13.0561 27.3778 12.8814 26.5739 12.8814 25.6364C12.8814 24.696 13.0561 23.892 13.4055 23.2244C13.7578 22.554 14.2351 22.0412 14.8374 21.6861C15.4425 21.331 16.1271 21.1534 16.8913 21.1534C17.6555 21.1534 18.3388 21.331 18.9411 21.6861C19.5462 22.0412 20.0234 22.554 20.3729 23.2244C20.7251 23.892 20.9013 24.696 20.9013 25.6364ZM19.3118 25.6364C19.3118 24.9744 19.2081 24.4162 19.0007 23.9616C18.7962 23.5043 18.5121 23.1591 18.1484 22.9261C17.7848 22.6903 17.3658 22.5724 16.8913 22.5724C16.4169 22.5724 15.9979 22.6903 15.6342 22.9261C15.2706 23.1591 14.9851 23.5043 14.7777 23.9616C14.5732 24.4162 14.4709 24.9744 14.4709 25.6364C14.4709 26.2983 14.5732 26.858 14.7777 27.3153C14.9851 27.7699 15.2706 28.1151 15.6342 28.3509C15.9979 28.5838 16.4169 28.7003 16.8913 28.7003C17.3658 28.7003 17.7848 28.5838 18.1484 28.3509C18.5121 28.1151 18.7962 27.7699 19.0007 27.3153C19.2081 26.858 19.3118 26.2983 19.3118 25.6364ZM29.7661 24.2173H28.1724C28.1269 23.956 28.0431 23.7244 27.921 23.5227C27.7988 23.3182 27.6468 23.1449 27.465 23.0028C27.2832 22.8608 27.0758 22.7543 26.8428 22.6832C26.6127 22.6094 26.3641 22.5724 26.0971 22.5724C25.6227 22.5724 25.2022 22.6918 24.8357 22.9304C24.4692 23.1662 24.1823 23.5128 23.9749 23.9702C23.7675 24.4247 23.6638 24.9801 23.6638 25.6364C23.6638 26.304 23.7675 26.8665 23.9749 27.3239C24.1852 27.7784 24.4721 28.1222 24.8357 28.3551C25.2022 28.5852 25.6212 28.7003 26.0928 28.7003C26.3542 28.7003 26.5985 28.6662 26.8258 28.598C27.0559 28.527 27.2619 28.4233 27.4437 28.2869C27.6283 28.1506 27.7832 27.983 27.9082 27.7841C28.036 27.5852 28.1241 27.358 28.1724 27.1023L29.7661 27.1108C29.7065 27.5256 29.5772 27.9148 29.3783 28.2784C29.1823 28.642 28.9252 28.9631 28.607 29.2415C28.2888 29.517 27.9167 29.733 27.4906 29.8892C27.0644 30.0426 26.5914 30.1193 26.0715 30.1193C25.3045 30.1193 24.6198 29.9418 24.0175 29.5866C23.4153 29.2315 22.9408 28.7188 22.5942 28.0483C22.2477 27.3778 22.0744 26.5739 22.0744 25.6364C22.0744 24.696 22.2491 23.892 22.5985 23.2244C22.9479 22.554 23.4238 22.0412 24.0261 21.6861C24.6283 21.331 25.3102 21.1534 26.0715 21.1534C26.5573 21.1534 27.009 21.2216 27.4266 21.358C27.8442 21.4943 28.2164 21.6946 28.5431 21.9588C28.8698 22.2202 29.1383 22.5412 29.3485 22.9219C29.5616 23.2997 29.7008 23.7315 29.7661 24.2173Z" fill="white" style="fill:white;fill-opacity:1;"/>
</svg>
