<svg width="26" height="26" viewBox="0 0 26 26" fill="none" xmlns="http://www.w3.org/2000/svg">
<path d="M6.50037 1H13.3344C13.8353 1 14.322 1.13144 14.7513 1.37207H13.9496V5.84961C13.9496 7.83783 15.5619 9.4502 17.5502 9.4502H22.3324C22.376 9.65091 22.3998 9.85685 22.3998 10.0654V22.0996C22.3998 23.7011 21.1018 24.9998 19.5004 25H6.50037C4.89874 25 3.59998 23.7012 3.59998 22.0996V3.90039C3.59998 2.29877 4.89874 1 6.50037 1ZM15.9496 2.41406L20.9857 7.4502H17.5502C16.6665 7.4502 15.9496 6.73327 15.9496 5.84961V2.41406Z" fill="white" stroke="#CCC8C3" style="fill:white;fill-opacity:1;stroke:#CCC8C3;stroke:color(display-p3 0.8000 0.7843 0.7647);stroke-opacity:1;" stroke-width="2"/>
<path d="M0.833374 19.4667C0.833374 17.7865 0.833374 16.9464 1.16035 16.3047C1.44797 15.7402 1.90692 15.2813 2.4714 14.9937C3.11314 14.6667 3.95322 14.6667 5.63337 14.6667H20.3667C22.0469 14.6667 22.8869 14.6667 23.5287 14.9937C24.0932 15.2813 24.5521 15.7402 24.8397 16.3047C25.1667 16.9464 25.1667 17.7865 25.1667 19.4667V21.2C25.1667 22.8802 25.1667 23.7202 24.8397 24.362C24.5521 24.9265 24.0932 25.3854 23.5287 25.673C22.8869 26 22.0469 26 20.3667 26H5.63338C3.95322 26 3.11314 26 2.4714 25.673C1.90692 25.3854 1.44797 24.9265 1.16035 24.362C0.833374 23.7202 0.833374 22.8802 0.833374 21.2V19.4667Z" fill="white" style="fill:white;fill-opacity:1;"/>
<path d="M0.833374 19.4667C0.833374 17.7865 0.833374 16.9464 1.16035 16.3047C1.44797 15.7402 1.90692 15.2813 2.4714 14.9937C3.11314 14.6667 3.95322 14.6667 5.63337 14.6667H20.3667C22.0469 14.6667 22.8869 14.6667 23.5287 14.9937C24.0932 15.2813 24.5521 15.7402 24.8397 16.3047C25.1667 16.9464 25.1667 17.7865 25.1667 19.4667V21.2C25.1667 22.8802 25.1667 23.7202 24.8397 24.362C24.5521 24.9265 24.0932 25.3854 23.5287 25.673C22.8869 26 22.0469 26 20.3667 26H5.63338C3.95322 26 3.11314 26 2.4714 25.673C1.90692 25.3854 1.44797 24.9265 1.16035 24.362C0.833374 23.7202 0.833374 22.8802 0.833374 21.2V19.4667Z" fill="#007CE9" style="fill:#007CE9;fill:color(display-p3 0.0000 0.4863 0.9137);fill-opacity:1;"/>
<path d="M5.91824 23.8333H3.7002V17.2879H5.96298C6.61284 17.2879 7.17108 17.4189 7.6377 17.681C8.10645 17.9409 8.46653 18.3149 8.71795 18.8028C8.96937 19.2907 9.09508 19.8745 9.09508 20.5542C9.09508 21.236 8.96831 21.822 8.71476 22.312C8.46334 22.8021 8.10006 23.1782 7.62491 23.4402C7.1519 23.7023 6.58301 23.8333 5.91824 23.8333ZM4.88592 22.8074H5.86071C6.31667 22.8074 6.697 22.7243 7.00169 22.5581C7.30638 22.3898 7.53542 22.1395 7.68883 21.8071C7.84224 21.4725 7.91895 21.0549 7.91895 20.5542C7.91895 20.0535 7.84224 19.638 7.68883 19.3078C7.53542 18.9754 7.30851 18.7272 7.00808 18.5631C6.70979 18.3969 6.33905 18.3138 5.89586 18.3138H4.88592V22.8074ZM15.926 20.5606C15.926 21.2659 15.7939 21.8699 15.5297 22.3728C15.2676 22.8735 14.9096 23.257 14.4558 23.5233C14.0041 23.7897 13.4917 23.9228 12.9185 23.9228C12.3453 23.9228 11.8319 23.7897 11.378 23.5233C10.9263 23.2549 10.5684 22.8703 10.3042 22.3696C10.0421 21.8667 9.91104 21.2637 9.91104 20.5606C9.91104 19.8554 10.0421 19.2524 10.3042 18.7517C10.5684 18.2488 10.9263 17.8642 11.378 17.5979C11.8319 17.3316 12.3453 17.1984 12.9185 17.1984C13.4917 17.1984 14.0041 17.3316 14.4558 17.5979C14.9096 17.8642 15.2676 18.2488 15.5297 18.7517C15.7939 19.2524 15.926 19.8554 15.926 20.5606ZM14.7338 20.5606C14.7338 20.0642 14.6561 19.6455 14.5005 19.3046C14.3471 18.9615 14.1341 18.7027 13.8613 18.5279C13.5886 18.3511 13.2743 18.2627 12.9185 18.2627C12.5627 18.2627 12.2484 18.3511 11.9757 18.5279C11.7029 18.7027 11.4888 18.9615 11.3333 19.3046C11.1799 19.6455 11.1032 20.0642 11.1032 20.5606C11.1032 21.0571 11.1799 21.4768 11.3333 21.8198C11.4888 22.1608 11.7029 22.4196 11.9757 22.5965C12.2484 22.7712 12.5627 22.8586 12.9185 22.8586C13.2743 22.8586 13.5886 22.7712 13.8613 22.5965C14.1341 22.4196 14.3471 22.1608 14.5005 21.8198C14.6561 21.4768 14.7338 21.0571 14.7338 20.5606ZM22.5051 19.4963H21.3098C21.2757 19.3003 21.2129 19.1267 21.1213 18.9754C21.0297 18.822 20.9157 18.692 20.7793 18.5855C20.6429 18.4789 20.4874 18.399 20.3127 18.3458C20.1401 18.2904 19.9537 18.2627 19.7534 18.2627C19.3975 18.2627 19.0822 18.3522 18.8073 18.5311C18.5325 18.708 18.3173 18.9679 18.1618 19.311C18.0062 19.6519 17.9284 20.0684 17.9284 20.5606C17.9284 21.0613 18.0062 21.4832 18.1618 21.8262C18.3194 22.1672 18.5346 22.425 18.8073 22.5997C19.0822 22.7723 19.3965 22.8586 19.7502 22.8586C19.9462 22.8586 20.1294 22.833 20.2999 22.7819C20.4725 22.7286 20.627 22.6508 20.7633 22.5485C20.9018 22.4463 21.0179 22.3206 21.1117 22.1714C21.2076 22.0223 21.2736 21.8518 21.3098 21.66L22.5051 21.6664C22.4604 21.9775 22.3635 22.2694 22.2143 22.5422C22.0673 22.8149 21.8745 23.0556 21.6358 23.2645C21.3972 23.4711 21.1181 23.6331 20.7985 23.7502C20.4789 23.8653 20.1241 23.9228 19.7342 23.9228C19.1589 23.9228 18.6454 23.7897 18.1937 23.5233C17.742 23.257 17.3862 22.8724 17.1262 22.3696C16.8663 21.8667 16.7363 21.2637 16.7363 20.5606C16.7363 19.8554 16.8674 19.2524 17.1294 18.7517C17.3915 18.2488 17.7484 17.8642 18.2001 17.5979C18.6518 17.3316 19.1632 17.1984 19.7342 17.1984C20.0985 17.1984 20.4373 17.2495 20.7505 17.3518C21.0637 17.4541 21.3429 17.6043 21.5879 17.8024C21.8329 17.9985 22.0343 18.2392 22.1919 18.5247C22.3517 18.8081 22.4561 19.132 22.5051 19.4963Z" fill="white" style="fill:white;fill-opacity:1;"/>
</svg>
