<svg width="33" height="33" viewBox="0 0 33 33" fill="none" xmlns="http://www.w3.org/2000/svg">
<path d="M8.25024 0.900391H16.925C17.8231 0.90047 18.6897 1.19941 19.3938 1.74121H18.0745V7.4248C18.0745 9.74439 19.9551 11.625 22.2747 11.625H28.4172V11.0576C28.6667 11.5903 28.8 12.1759 28.8 12.7754V28.0498C28.8 30.2865 26.9869 32.0995 24.7502 32.0996H8.25024C6.01349 32.0996 4.20044 30.2866 4.20044 28.0498V4.9502C4.20044 2.71344 6.01349 0.900391 8.25024 0.900391ZM19.8743 2.17188L27.5276 9.8252H22.2747C20.9492 9.82518 19.8743 8.75028 19.8743 7.4248V2.17188Z" fill="white" stroke="#CCC8C3" style="fill:white;fill-opacity:1;stroke:#CCC8C3;stroke:color(display-p3 0.8000 0.7843 0.7647);stroke-opacity:1;" stroke-width="1.8"/>
<path d="M2 22C2 19.7909 3.79086 18 6 18H28C30.2091 18 32 19.7909 32 22V29C32 31.2091 30.2091 33 28 33H6C3.79086 33 2 31.2091 2 29V22Z" fill="white" style="fill:white;fill-opacity:1;"/>
<path d="M2 22C2 19.7909 3.79086 18 6 18H28C30.2091 18 32 19.7909 32 22V29C32 31.2091 30.2091 33 28 33H6C3.79086 33 2 31.2091 2 29V22Z" fill="#DC455A" style="fill:#DC455A;fill:color(display-p3 0.8618 0.2718 0.3513);fill-opacity:1;"/>
<path d="M6.23619 30V21.2727H9.50891C10.1794 21.2727 10.7419 21.3977 11.1964 21.6477C11.6538 21.8977 11.999 22.2415 12.2319 22.679C12.4677 23.1136 12.5856 23.608 12.5856 24.1619C12.5856 24.7216 12.4677 25.2187 12.2319 25.6534C11.9961 26.0881 11.6481 26.4304 11.1879 26.6804C10.7277 26.9276 10.1609 27.0511 9.48761 27.0511H7.31857V25.7514H9.27454C9.66658 25.7514 9.98761 25.6832 10.2376 25.5469C10.4876 25.4105 10.6723 25.223 10.7916 24.9844C10.9137 24.7457 10.9748 24.4716 10.9748 24.1619C10.9748 23.8523 10.9137 23.5795 10.7916 23.3438C10.6723 23.108 10.4862 22.9247 10.2333 22.794C9.98335 22.6605 9.6609 22.5938 9.26602 22.5938H7.81715V30H6.23619ZM16.8162 30H13.8588V21.2727H16.8759C17.7424 21.2727 18.4867 21.4474 19.1088 21.7969C19.7338 22.1435 20.214 22.642 20.5492 23.2926C20.8844 23.9432 21.052 24.7216 21.052 25.6278C21.052 26.5369 20.883 27.3182 20.5449 27.9716C20.2097 28.625 19.7253 29.1264 19.0918 29.4759C18.4611 29.8253 17.7026 30 16.8162 30ZM15.4398 28.6321H16.7395C17.3475 28.6321 17.8546 28.5213 18.2608 28.2997C18.6671 28.0753 18.9725 27.7415 19.177 27.2983C19.3816 26.8523 19.4838 26.2955 19.4838 25.6278C19.4838 24.9602 19.3816 24.4062 19.177 23.9659C18.9725 23.5227 18.6699 23.1918 18.2694 22.973C17.8716 22.7514 17.3773 22.6406 16.7864 22.6406H15.4398V28.6321ZM22.4542 30V21.2727H28.0451V22.598H24.0351V24.9673H27.6615V26.2926H24.0351V30H22.4542Z" fill="white" style="fill:white;fill-opacity:1;"/>
</svg>
