<svg width="26" height="26" viewBox="0 0 26 26" fill="none" xmlns="http://www.w3.org/2000/svg">
<path d="M6.50037 1H13.3344C14.1035 1 14.8413 1.30575 15.3851 1.84961L21.5502 8.01465C22.094 8.5585 22.3998 9.2963 22.3998 10.0654V22.0996C22.3998 23.7011 21.1018 24.9998 19.5004 25H6.50037C4.89874 25 3.59998 23.7012 3.59998 22.0996V3.90039C3.59998 2.29877 4.89874 1 6.50037 1Z" fill="white" stroke="#CCC8C3" style="fill:white;fill-opacity:1;stroke:#CCC8C3;stroke:color(display-p3 0.8000 0.7843 0.7647);stroke-opacity:1;" stroke-width="2"/>
<path d="M1.83337 19.4667C1.83337 17.7865 1.83337 16.9464 2.16035 16.3047C2.44797 15.7402 2.90692 15.2813 3.4714 14.9937C4.11314 14.6667 4.95322 14.6667 6.63337 14.6667H19.3667C21.0469 14.6667 21.8869 14.6667 22.5287 14.9937C23.0932 15.2813 23.5521 15.7402 23.8397 16.3047C24.1667 16.9464 24.1667 17.7865 24.1667 19.4667V21.2C24.1667 22.8802 24.1667 23.7202 23.8397 24.362C23.5521 24.9265 23.0932 25.3854 22.5287 25.673C21.8869 26 21.0469 26 19.3667 26H6.63338C4.95322 26 4.11314 26 3.4714 25.673C2.90692 25.3854 2.44797 24.9265 2.16035 24.362C1.83337 23.7202 1.83337 22.8802 1.83337 21.2V19.4667Z" fill="white" style="fill:white;fill-opacity:1;"/>
<path d="M1.83337 19.4667C1.83337 17.7865 1.83337 16.9464 2.16035 16.3047C2.44797 15.7402 2.90692 15.2813 3.4714 14.9937C4.11314 14.6667 4.95322 14.6667 6.63337 14.6667H19.3667C21.0469 14.6667 21.8869 14.6667 22.5287 14.9937C23.0932 15.2813 23.5521 15.7402 23.8397 16.3047C24.1667 16.9464 24.1667 17.7865 24.1667 19.4667V21.2C24.1667 22.8802 24.1667 23.7202 23.8397 24.362C23.5521 24.9265 23.0932 25.3854 22.5287 25.673C21.8869 26 21.0469 26 19.3667 26H6.63338C4.95322 26 4.11314 26 3.4714 25.673C2.90692 25.3854 2.44797 24.9265 2.16035 24.362C1.83337 23.7202 1.83337 22.8802 1.83337 21.2V19.4667Z" fill="#DC455A" style="fill:#DC455A;fill:color(display-p3 0.8618 0.2718 0.3513);fill-opacity:1;"/>
<path d="M4.99658 23.8333V17.2879H7.45113C7.95397 17.2879 8.37585 17.3816 8.71675 17.5691C9.05979 17.7566 9.31867 18.0145 9.49339 18.3426C9.67023 18.6686 9.75866 19.0393 9.75866 19.4548C9.75866 19.8745 9.67023 20.2474 9.49339 20.5734C9.31654 20.8994 9.05553 21.1561 8.71036 21.3436C8.36519 21.529 7.94012 21.6217 7.43515 21.6217H5.80837V20.6469H7.27535C7.56938 20.6469 7.81015 20.5958 7.99765 20.4935C8.18515 20.3912 8.32364 20.2506 8.41313 20.0716C8.50475 19.8926 8.55056 19.687 8.55056 19.4548C8.55056 19.2225 8.50475 19.018 8.41313 18.8412C8.32364 18.6643 8.18408 18.5269 7.99445 18.4289C7.80695 18.3287 7.56512 18.2787 7.26896 18.2787H6.18231V23.8333H4.99658ZM12.8622 23.8333H10.6441V17.2879H12.9069C13.5568 17.2879 14.115 17.4189 14.5816 17.681C15.0504 17.9409 15.4105 18.3149 15.6619 18.8028C15.9133 19.2907 16.039 19.8745 16.039 20.5542C16.039 21.236 15.9122 21.822 15.6587 22.312C15.4073 22.8021 15.044 23.1782 14.5688 23.4402C14.0958 23.7023 13.5269 23.8333 12.8622 23.8333ZM11.8299 22.8074H12.8046C13.2606 22.8074 13.6409 22.7243 13.9456 22.5581C14.2503 22.3898 14.4794 22.1395 14.6328 21.8071C14.7862 21.4725 14.8629 21.0549 14.8629 20.5542C14.8629 20.0535 14.7862 19.638 14.6328 19.3078C14.4794 18.9754 14.2524 18.7272 13.952 18.5631C13.6537 18.3969 13.283 18.3138 12.8398 18.3138H11.8299V22.8074ZM17.0212 23.8333V17.2879H21.2144V18.2819H18.2069V20.0588H20.9267V21.0528H18.2069V23.8333H17.0212Z" fill="white" style="fill:white;fill-opacity:1;"/>
</svg>
