<svg width="33" height="33" viewBox="0 0 33 33" fill="none" xmlns="http://www.w3.org/2000/svg">
<path d="M8.25024 0.900391H16.925C17.8231 0.90047 18.6897 1.19941 19.3938 1.74121H18.0745V7.4248C18.0745 9.74439 19.9551 11.625 22.2747 11.625H28.4172V11.0576C28.6667 11.5903 28.8 12.1759 28.8 12.7754V28.0498C28.8 30.2865 26.9869 32.0995 24.7502 32.0996H8.25024C6.01349 32.0996 4.20044 30.2866 4.20044 28.0498V4.9502C4.20044 2.71344 6.01349 0.900391 8.25024 0.900391ZM19.8743 2.17188L27.5276 9.8252H22.2747C20.9492 9.82518 19.8743 8.75028 19.8743 7.4248V2.17188Z" fill="white" stroke="#CCC8C3" style="fill:white;fill-opacity:1;stroke:#CCC8C3;stroke:color(display-p3 0.8000 0.7843 0.7647);stroke-opacity:1;" stroke-width="1.8"/>
<path d="M2.5 22C2.5 19.7909 4.29086 18 6.5 18H27.5C29.7091 18 31.5 19.7909 31.5 22V29C31.5 31.2091 29.7091 33 27.5 33H6.5C4.29086 33 2.5 31.2091 2.5 29V22Z" fill="white" style="fill:white;fill-opacity:1;"/>
<path d="M2.5 22C2.5 19.7909 4.29086 18 6.5 18H27.5C29.7091 18 31.5 19.7909 31.5 22V29C31.5 31.2091 29.7091 33 27.5 33H6.5C4.29086 33 2.5 31.2091 2.5 29V22Z" fill="#0A9429" style="fill:#0A9429;fill:color(display-p3 0.0398 0.5786 0.1604);fill-opacity:1;"/>
<path d="M7.84432 21.2727L9.76619 24.4688H9.83438L11.7648 21.2727H13.5673L10.8784 25.6364L13.6099 30H11.7776L9.83438 26.8253H9.76619L7.82301 30H5.99915L8.75625 25.6364L6.03324 21.2727H7.84432ZM14.7085 30V21.2727H16.2894V28.6747H20.1332V30H14.7085ZM26.1482 23.6719C26.1085 23.2997 25.9408 23.0099 25.6454 22.8026C25.3528 22.5952 24.9721 22.4915 24.5033 22.4915C24.1738 22.4915 23.8911 22.5412 23.6553 22.6406C23.4195 22.7401 23.2391 22.875 23.1141 23.0455C22.9891 23.2159 22.9252 23.4105 22.9224 23.6293C22.9224 23.8111 22.9636 23.9687 23.046 24.1023C23.1312 24.2358 23.2462 24.3494 23.3911 24.4432C23.536 24.5341 23.6965 24.6108 23.8727 24.6733C24.0488 24.7358 24.2264 24.7884 24.4053 24.831L25.2235 25.0355C25.5531 25.1122 25.8698 25.2159 26.1738 25.3466C26.4806 25.4773 26.7548 25.642 26.9962 25.8409C27.2406 26.0398 27.4337 26.2798 27.5758 26.5611C27.7178 26.8423 27.7889 27.1719 27.7889 27.5497C27.7889 28.0611 27.6582 28.5114 27.3968 28.9006C27.1354 29.2869 26.7576 29.5895 26.2633 29.8082C25.7718 30.0241 25.1766 30.1321 24.4778 30.1321C23.7988 30.1321 23.2093 30.027 22.7093 29.8168C22.2121 29.6065 21.8229 29.2997 21.5417 28.8963C21.2633 28.4929 21.1127 28.0014 21.09 27.4219H22.6454C22.6681 27.7259 22.7619 27.9787 22.9266 28.1804C23.0914 28.3821 23.3059 28.5327 23.5701 28.6321C23.8371 28.7315 24.1354 28.7812 24.465 28.7812C24.8087 28.7812 25.1099 28.7301 25.3684 28.6278C25.6298 28.5227 25.8343 28.3778 25.982 28.1932C26.1298 28.0057 26.205 27.7869 26.2079 27.5369C26.205 27.3097 26.1383 27.1222 26.0076 26.9744C25.8769 26.8239 25.6937 26.6989 25.4579 26.5994C25.2249 26.4972 24.9522 26.4062 24.6397 26.3267L23.6468 26.071C22.9281 25.8864 22.3599 25.6065 21.9423 25.2315C21.5275 24.8537 21.3201 24.3523 21.3201 23.7273C21.3201 23.2131 21.4593 22.7628 21.7377 22.3764C22.019 21.9901 22.4011 21.6903 22.884 21.4773C23.367 21.2614 23.9139 21.1534 24.5246 21.1534C25.144 21.1534 25.6866 21.2614 26.1525 21.4773C26.6212 21.6903 26.9891 21.9872 27.2562 22.3679C27.5232 22.7457 27.661 23.1804 27.6695 23.6719H26.1482Z" fill="white" style="fill:white;fill-opacity:1;"/>
</svg>
