<svg width="26" height="26" viewBox="0 0 26 26" fill="none" xmlns="http://www.w3.org/2000/svg">
<path d="M6.50037 1H13.3344C14.1035 1 14.8413 1.30575 15.3851 1.84961L21.5502 8.01465C22.094 8.5585 22.3998 9.2963 22.3998 10.0654V22.0996C22.3998 23.7011 21.1018 24.9998 19.5004 25H6.50037C4.89874 25 3.59998 23.7012 3.59998 22.0996V3.90039C3.59998 2.29877 4.89874 1 6.50037 1Z" fill="white" stroke="#CCC8C3" style="fill:white;fill-opacity:1;stroke:#CCC8C3;stroke:color(display-p3 0.8000 0.7843 0.7647);stroke-opacity:1;" stroke-width="2"/>
<path d="M2.33325 19.4667C2.33325 17.7865 2.33325 16.9464 2.66023 16.3047C2.94785 15.7402 3.40679 15.2813 3.97128 14.9937C4.61302 14.6667 5.45309 14.6667 7.13325 14.6667H18.8666C20.5467 14.6667 21.3868 14.6667 22.0286 14.9937C22.593 15.2813 23.052 15.7402 23.3396 16.3047C23.6666 16.9464 23.6666 17.7865 23.6666 19.4667V21.2C23.6666 22.8802 23.6666 23.7202 23.3396 24.362C23.052 24.9265 22.593 25.3854 22.0286 25.673C21.3868 26 20.5467 26 18.8666 26H7.13326C5.4531 26 4.61302 26 3.97128 25.673C3.40679 25.3854 2.94785 24.9265 2.66023 24.362C2.33325 23.7202 2.33325 22.8802 2.33325 21.2V19.4667Z" fill="white" style="fill:white;fill-opacity:1;"/>
<path d="M2.33325 19.4667C2.33325 17.7865 2.33325 16.9464 2.66023 16.3047C2.94785 15.7402 3.40679 15.2813 3.97128 14.9937C4.61302 14.6667 5.45309 14.6667 7.13325 14.6667H18.8666C20.5467 14.6667 21.3868 14.6667 22.0286 14.9937C22.593 15.2813 23.052 15.7402 23.3396 16.3047C23.6666 16.9464 23.6666 17.7865 23.6666 19.4667V21.2C23.6666 22.8802 23.6666 23.7202 23.3396 24.362C23.052 24.9265 22.593 25.3854 22.0286 25.673C21.3868 26 20.5467 26 18.8666 26H7.13326C5.4531 26 4.61302 26 3.97128 25.673C3.40679 25.3854 2.94785 24.9265 2.66023 24.362C2.33325 23.7202 2.33325 22.8802 2.33325 21.2V19.4667Z" fill="#0A9429" style="fill:#0A9429;fill:color(display-p3 0.0398 0.5786 0.1604);fill-opacity:1;"/>
<path d="M6.20256 17.2879L7.64397 19.6849H7.6951L9.1429 17.2879H10.4948L8.47813 20.5606L10.5268 23.8333H9.15249L7.6951 21.4523H7.64397L6.18658 23.8333H4.81868L6.88651 20.5606L4.84425 17.2879H6.20256ZM11.2812 23.8333V17.2879H12.4669V22.8394H15.3498V23.8333H11.2812ZM19.7916 19.0872C19.7618 18.8081 19.6361 18.5908 19.4145 18.4353C19.195 18.2797 18.9095 18.202 18.5579 18.202C18.3108 18.202 18.0988 18.2392 17.9219 18.3138C17.7451 18.3884 17.6098 18.4896 17.516 18.6174C17.4223 18.7453 17.3743 18.8912 17.3722 19.0553C17.3722 19.1917 17.4031 19.3099 17.4649 19.41C17.5288 19.5102 17.6151 19.5954 17.7238 19.6657C17.8324 19.7339 17.9528 19.7914 18.0849 19.8383C18.217 19.8852 18.3502 19.9246 18.4844 19.9566L19.0981 20.11C19.3452 20.1675 19.5828 20.2453 19.8108 20.3433C20.0409 20.4413 20.2465 20.5649 20.4276 20.714C20.6108 20.8632 20.7557 21.0432 20.8623 21.2542C20.9688 21.4651 21.0221 21.7122 21.0221 21.9956C21.0221 22.3792 20.9241 22.7169 20.728 23.0088C20.532 23.2985 20.2486 23.5255 19.8779 23.6895C19.5093 23.8515 19.0629 23.9324 18.5388 23.9324C18.0295 23.9324 17.5874 23.8536 17.2124 23.6959C16.8395 23.5382 16.5476 23.3081 16.3367 23.0056C16.1279 22.703 16.015 22.3344 15.9979 21.8997H17.1645C17.1815 22.1277 17.2518 22.3174 17.3754 22.4686C17.499 22.6199 17.6599 22.7328 17.858 22.8074C18.0583 22.882 18.282 22.9193 18.5292 22.9193C18.787 22.9193 19.0128 22.8809 19.2067 22.8042C19.4028 22.7254 19.5562 22.6167 19.667 22.4782C19.7778 22.3376 19.8342 22.1735 19.8363 21.986C19.8342 21.8156 19.7841 21.675 19.6861 21.5642C19.5881 21.4512 19.4507 21.3575 19.2738 21.2829C19.0991 21.2062 18.8946 21.138 18.6602 21.0784L17.9155 20.8866C17.3765 20.7481 16.9503 20.5382 16.6371 20.257C16.326 19.9736 16.1705 19.5975 16.1705 19.1288C16.1705 18.7431 16.2749 18.4054 16.4837 18.1157C16.6947 17.8259 16.9812 17.6011 17.3434 17.4413C17.7057 17.2794 18.1158 17.1984 18.5739 17.1984C19.0384 17.1984 19.4454 17.2794 19.7948 17.4413C20.1464 17.6011 20.4223 17.8238 20.6226 18.1093C20.8229 18.3926 20.9262 18.7186 20.9326 19.0872H19.7916Z" fill="white" style="fill:white;fill-opacity:1;"/>
</svg>
